# xmcd CD database file
#
# Track frame offsets:
#	150
#	19982
#	38480
#
# Disc length: 772 seconds
#
# Revision: 0
# Processed by: cddbd v1.5.1PL0 Copyright (c) Steve Scherf et al.
# Submitted via: CDex 1.40Beta9
#
DISCID=19030203
DTITLE=Ryu - 私がいなくなっても
DYEAR=2005
DGENRE=J-Pop
TTITLE0=私がいなくなっても
TTITLE1=チング−友達−
TTITLE2=私がいなくなっても(Instrumental)
EXTD=YEAR: 2005/06/22
EXTT0=
EXTT1=
EXTT2=
PLAYORDER=
